<svg width="1401" height="804" viewBox="0 0 1401 804" fill="none" xmlns="http://www.w3.org/2000/svg">
<rect x="1" width="1400" height="804" fill="#CDBAF5"/>
<line x1="56" y1="402" x2="56" y2="804" stroke="#A179F5" stroke-width="2"/>
<line x1="1348" y1="402" x2="1348" y2="804" stroke="#A179F5" stroke-width="2"/>
<line x1="1272" y1="402" x2="1272" y2="804" stroke="#A179F5" stroke-width="2"/>
<line x1="1196" y1="402" x2="1196" y2="804" stroke="#A179F5" stroke-width="2"/>
<line x1="1120" y1="402" x2="1120" y2="804" stroke="#A179F5" stroke-width="2"/>
<line x1="1044" y1="402" x2="1044" y2="804" stroke="#A179F5" stroke-width="2"/>
<line x1="968" y1="402" x2="968" y2="804" stroke="#A179F5" stroke-width="2"/>
<line x1="892" y1="402" x2="892" y2="804" stroke="#A179F5" stroke-width="2"/>
<line x1="816" y1="402" x2="816" y2="804" stroke="#A179F5" stroke-width="2"/>
<line x1="740" y1="402" x2="740" y2="804" stroke="#A179F5" stroke-width="2"/>
<line x1="664" y1="402" x2="664" y2="804" stroke="#A179F5" stroke-width="2"/>
<line x1="588" y1="402" x2="588" y2="804" stroke="#A179F5" stroke-width="2"/>
<line x1="512" y1="402" x2="512" y2="804" stroke="#A179F5" stroke-width="2"/>
<line x1="436" y1="402" x2="436" y2="804" stroke="#A179F5" stroke-width="2"/>
<line x1="360" y1="402" x2="360" y2="804" stroke="#A179F5" stroke-width="2"/>
<line x1="284" y1="402" x2="284" y2="804" stroke="#A179F5" stroke-width="2"/>
<line x1="208" y1="402" x2="208" y2="804" stroke="#A179F5" stroke-width="2"/>
<line x1="132" y1="402" x2="132" y2="804" stroke="#A179F5" stroke-width="2"/>
<line x1="0.998548" y1="403.033" x2="1401" y2="401" stroke="#A179F5" stroke-width="2"/>
<line x1="0.998548" y1="477" x2="1401" y2="474.967" stroke="#A179F5" stroke-width="2"/>
<line x1="0.998548" y1="551" x2="1401" y2="548.967" stroke="#A179F5" stroke-width="2"/>
<line x1="0.998548" y1="625" x2="1401" y2="622.967" stroke="#A179F5" stroke-width="2"/>
<line x1="0.998548" y1="699" x2="1401" y2="696.967" stroke="#A179F5" stroke-width="2"/>
<line x1="0.998548" y1="773" x2="1401" y2="770.967" stroke="#A179F5" stroke-width="2"/>
<line x1="56" y1="4.58296e-08" x2="56" y2="402" stroke="#A179F5" stroke-width="2"/>
<line x1="1348" y1="4.49575e-08" x2="1348" y2="402" stroke="#A179F5" stroke-width="2"/>
<line x1="1272" y1="4.49575e-08" x2="1272" y2="402" stroke="#A179F5" stroke-width="2"/>
<line x1="1196" y1="4.49575e-08" x2="1196" y2="402" stroke="#A179F5" stroke-width="2"/>
<line x1="1120" y1="4.49575e-08" x2="1120" y2="402" stroke="#A179F5" stroke-width="2"/>
<line x1="1044" y1="4.49575e-08" x2="1044" y2="402" stroke="#A179F5" stroke-width="2"/>
<line x1="968" y1="4.49575e-08" x2="968" y2="402" stroke="#A179F5" stroke-width="2"/>
<line x1="892" y1="4.49575e-08" x2="892" y2="402" stroke="#A179F5" stroke-width="2"/>
<line x1="816" y1="4.49575e-08" x2="816" y2="402" stroke="#A179F5" stroke-width="2"/>
<line x1="740" y1="4.49575e-08" x2="740" y2="402" stroke="#A179F5" stroke-width="2"/>
<line x1="664" y1="4.49575e-08" x2="664" y2="402" stroke="#A179F5" stroke-width="2"/>
<line x1="588" y1="4.49575e-08" x2="588" y2="402" stroke="#A179F5" stroke-width="2"/>
<line x1="512" y1="4.49575e-08" x2="512" y2="402" stroke="#A179F5" stroke-width="2"/>
<line x1="436" y1="4.49575e-08" x2="436" y2="402" stroke="#A179F5" stroke-width="2"/>
<line x1="360" y1="4.49575e-08" x2="360" y2="402" stroke="#A179F5" stroke-width="2"/>
<line x1="284" y1="4.49575e-08" x2="284" y2="402" stroke="#A179F5" stroke-width="2"/>
<line x1="208" y1="4.49575e-08" x2="208" y2="402" stroke="#A179F5" stroke-width="2"/>
<line x1="132" y1="4.49575e-08" x2="132" y2="402" stroke="#A179F5" stroke-width="2"/>
<line x1="0.998548" y1="31.0334" x2="1401" y2="29" stroke="#A179F5" stroke-width="2"/>
<line x1="0.998548" y1="105" x2="1401" y2="102.967" stroke="#A179F5" stroke-width="2"/>
<line x1="0.998548" y1="179" x2="1401" y2="176.967" stroke="#A179F5" stroke-width="2"/>
<line x1="0.998548" y1="253" x2="1401" y2="250.967" stroke="#A179F5" stroke-width="2"/>
<line x1="0.998548" y1="327" x2="1401" y2="324.967" stroke="#A179F5" stroke-width="2"/>
</svg>
