<svg width="206" height="206" viewBox="0 0 206 206" fill="none" xmlns="http://www.w3.org/2000/svg">
<circle cx="103" cy="103" r="103" fill="white"/>
<path d="M104.996 24C65.2735 23.9949 31.4118 52.6312 25.052 91.607C18.6921 130.584 41.7119 168.391 79.3996 180.867C83.4586 181.593 84.9118 179.116 84.9118 176.985C84.9118 175.073 84.8468 170.005 84.8225 163.267C62.2947 168.108 57.5375 152.469 57.5375 152.469C56.0544 147.603 52.8661 143.426 48.5507 140.696C41.2444 135.701 49.1109 135.814 49.1109 135.814C54.3119 136.522 58.8895 139.586 61.5072 144.109C63.7229 148.114 67.4558 151.073 71.8765 152.329C76.2972 153.585 81.0395 153.034 85.0498 150.799C85.4266 146.716 87.2541 142.9 90.2046 140.034C72.2313 138.009 53.3323 131.101 53.3323 100.25C53.2325 92.2712 56.2133 84.5574 61.6615 78.6963C59.1964 71.7508 59.4867 64.1326 62.4733 57.3924C62.4733 57.3924 69.2682 55.2216 84.7332 65.6315C97.9972 62.0164 111.995 62.0164 125.259 65.6315C140.732 55.2136 147.519 57.3924 147.519 57.3924C150.519 64.1294 150.81 71.7529 148.33 78.6963C153.799 84.5568 156.777 92.2905 156.643 100.283C156.643 131.214 137.728 138.009 119.69 140.002C123.581 143.957 125.577 149.381 125.169 154.898C125.169 165.663 125.072 174.346 125.072 176.985C125.072 179.14 126.517 181.641 130.649 180.851C168.321 168.354 191.317 130.544 184.943 91.578C178.57 52.6123 144.71 23.991 104.996 24Z" fill="black"/>
</svg>
