<svg width="64" height="64" viewBox="0 0 64 64" fill="none" xmlns="http://www.w3.org/2000/svg">
<path d="M62.5 32C62.5 15.1553 48.8447 1.5 32 1.5C15.1553 1.5 1.5 15.1553 1.5 32C1.5 48.8447 15.1553 62.5 32 62.5C48.8447 62.5 62.5 48.8447 62.5 32Z" fill="white"/>
<path d="M31.9987 9C20.7197 8.99859 11.1046 17.2065 9.29871 28.3779C7.49286 39.5494 14.0293 50.386 24.7307 53.9618C25.8832 54.1699 26.296 53.4599 26.296 52.8493C26.296 52.3011 26.2775 50.8485 26.2706 48.9173C19.8738 50.305 18.523 45.8224 18.523 45.8224C18.1019 44.4277 17.1965 43.2303 15.9712 42.4478C13.8966 41.0161 16.1303 41.0485 16.1303 41.0485C17.607 41.2515 18.9069 42.1299 19.6502 43.4263C20.2793 44.5742 21.3393 45.4223 22.5945 45.7822C23.8498 46.1423 25.1965 45.9844 26.3352 45.3437C26.4421 44.1733 26.961 43.0795 27.7988 42.2581C22.6953 41.6776 17.3289 39.6978 17.3289 30.8553C17.3006 28.5681 18.147 26.3572 19.694 24.6773C18.994 22.6866 19.0765 20.503 19.9246 18.5711C19.9246 18.5711 21.8539 17.9488 26.2453 20.9326C30.0115 19.8965 33.9864 19.8965 37.7525 20.9326C42.1461 17.9466 44.0732 18.5711 44.0732 18.5711C44.9252 20.502 45.0077 22.6872 44.3037 24.6773C45.8564 26.3571 46.7022 28.5737 46.6641 30.8645C46.6641 39.7301 41.2931 41.6776 36.1711 42.249C37.2759 43.3826 37.8428 44.9373 37.7271 46.5186C37.7271 49.6042 37.6994 52.0929 37.6994 52.8493C37.6994 53.4668 38.1098 54.1838 39.283 53.9571C49.9801 50.3753 56.5096 39.5381 54.6999 28.3696C52.8903 17.201 43.2758 8.99747 31.9987 9Z" fill="#33342E"/>
</svg>
