<svg width="76" height="81" viewBox="0 0 76 81" fill="none" xmlns="http://www.w3.org/2000/svg">
<path d="M39.0318 23.9141L39.0318 22.349L39.0318 8.75743C39.0318 6.83264 39.7964 4.98669 41.1574 3.62565C42.5185 2.26462 44.3644 1.5 46.2892 1.5C48.214 1.5 50.06 2.26462 51.421 3.62565C52.782 4.98669 53.5466 6.83264 53.5466 8.75743L53.5466 41.5002L53.5466 45.1199L56.107 42.5612L63.896 34.7772C63.8964 34.7767 63.8969 34.7763 63.8973 34.7759C64.9491 33.7305 66.3461 33.1047 67.8263 33.0159C69.3072 32.927 70.7696 33.3815 71.9391 34.2943C73.1087 35.207 73.9049 36.5152 74.1784 37.9733C74.4518 39.4307 74.1842 40.9377 73.4258 42.2118C73.4254 42.2125 73.425 42.2132 73.4246 42.2138L60.9616 62.9823L60.9319 63.0317L60.9061 63.0833L54.826 75.2436L54.8255 75.2444C54.327 76.2429 53.5602 77.0828 52.611 77.6699C51.6619 78.2569 50.5679 78.5679 49.4519 78.5679L17.9156 78.5679C17.9155 78.5679 17.9153 78.5679 17.9151 78.5679C16.8566 78.5675 15.817 78.2873 14.9016 77.7558C13.986 77.2242 13.2272 76.46 12.7021 75.5407L12.7019 75.5405L5.72102 63.3251L5.72098 63.325C4.60507 61.3726 3.91285 59.2071 3.68938 56.9694L3.68934 56.9689L2.32821 43.3827C2.32821 43.3826 2.32818 43.3825 2.32818 43.3824C2.20995 42.1997 2.34084 41.0053 2.71241 39.8762C3.08403 38.7471 3.68811 37.7083 4.48574 36.827C5.28336 35.9456 6.25682 35.2411 7.34336 34.7589C8.42991 34.2768 9.60543 34.0276 10.7941 34.0276L13.7066 34.0276L14.4628 34.0276L14.9125 33.4197C15.1667 33.076 15.479 32.6737 15.8343 32.2473L39.0318 23.9141ZM39.0318 23.9141L37.468 23.8476L37.2389 23.8379M39.0318 23.9141L37.2389 23.8379M37.2389 23.8379C37.2379 23.8378 37.2369 23.8378 37.236 23.8377M37.2389 23.8379L37.236 23.8377M37.236 23.8377C35.6675 23.7775 33.6821 23.769 32.3322 24.0398L32.3313 24.04C31.1498 24.2763 29.9902 24.8135 29.0724 25.3217C28.0415 25.896 27.34 26.7778 26.9321 27.7858L26.5145 28.8177L25.4058 28.7169L24.7558 28.6579C23.191 28.538 21.1053 28.5098 19.6445 29.0957L19.6432 29.0962C18.1687 29.686 16.7774 31.1167 15.8347 32.2468L37.236 23.8377Z" fill="white" stroke="black" stroke-width="3"/>
</svg>
